<svg xmlns="http://www.w3.org/2000/svg" xmlns:xlink="http://www.w3.org/1999/xlink"><defs><style>
    .sprite-symbol-usage {display: none;}
    .sprite-symbol-usage:target {display: inline;}
  </style><symbol viewBox="0 0 25 26" fill="currentColor" id="advantages1"><path d="M24.997 23.457H10.98v2.337h14.016v-2.337ZM20.038 8.355l-3.305-3.302L.218 21.571l3.303 3.303L20.038 8.355ZM11.778.098 5.171 6.704l3.305 3.305L15.08 3.4 11.778.097Zm9.919 9.91-6.607 6.607 3.303 3.304L25 13.31l-3.303-3.303Z" /></symbol><symbol viewBox="0 0 30 17" fill="currentColor" id="advantages2"><path d="M30 2.764c0 1.467-1.227 2.667-2.727 2.667-.246 0-.477-.027-.696-.093l-4.854 4.733c.068.213.095.453.095.693 0 1.467-1.227 2.667-2.727 2.667-1.5 0-2.727-1.2-2.727-2.667 0-.24.027-.48.095-.693l-3.477-3.4a2.46 2.46 0 0 1-.71.093 2.46 2.46 0 0 1-.708-.093l-6.205 6.08c.068.213.096.44.096.68 0 1.467-1.228 2.667-2.728 2.667-1.5 0-2.727-1.2-2.727-2.667 0-1.467 1.227-2.667 2.727-2.667.246 0 .478.027.696.094L9.64 4.79a2.306 2.306 0 0 1-.096-.693c0-1.467 1.228-2.667 2.728-2.667 1.5 0 2.727 1.2 2.727 2.667 0 .24-.027.48-.095.693l3.477 3.4a2.46 2.46 0 0 1 .709-.093c.245 0 .49.026.709.093l4.84-4.747a2.219 2.219 0 0 1-.095-.68c0-1.466 1.228-2.666 2.728-2.666 1.5 0 2.727 1.2 2.727 2.666Z" /></symbol><symbol viewBox="0 0 25 25" fill="currentColor" id="advantages3"><path d="M24.79 9.179A8.452 8.452 0 0 0 16.332.721a8.452 8.452 0 0 0-8.459 8.458 8.435 8.435 0 0 0 7.045 8.325v4.761H5.251V18.64H6.46v-4.833c0-.665-.544-1.208-1.209-1.208H1.626c-.664 0-1.208.543-1.208 1.208v4.833h1.208v6.042H20.96v-2.417h-3.625v-4.688c4.193-.496 7.455-4.06 7.455-8.398ZM3.44 11.39A1.81 1.81 0 0 0 5.25 9.578 1.81 1.81 0 0 0 3.44 7.765a1.81 1.81 0 0 0-1.813 1.813A1.81 1.81 0 0 0 3.44 11.39Z" /></symbol><symbol viewBox="0 0 25 25" fill="currentColor" id="advantages4"><path d="M12.5 4.723a7.87 7.87 0 0 0-7.875 7.875h2.25A5.627 5.627 0 0 1 12.5 6.973a5.627 5.627 0 0 1 5.625 5.625h2.25A7.87 7.87 0 0 0 12.5 4.723Zm1.125 10.45a2.815 2.815 0 0 0 1.688-2.575 2.814 2.814 0 0 0-5.626 0c0 1.147.698 2.137 1.688 2.576v3.712l-3.836 3.837 1.586 1.586 3.375-3.375 3.375 3.375 1.586-1.586-3.836-3.837v-3.712ZM12.5.224C5.671.223.125 5.769.125 12.598h2.25c0-5.592 4.534-10.125 10.125-10.125s10.125 4.533 10.125 10.125h2.25C24.875 5.768 19.329.223 12.5.223Z" /></symbol><symbol viewBox="0 0 27 27" fill="currentColor" id="advantages5"><path d="M13.499 8.765a4.832 4.832 0 0 0-4.834 4.833 4.832 4.832 0 0 0 4.834 4.834 4.832 4.832 0 0 0 4.833-4.834 4.832 4.832 0 0 0-4.833-4.833ZM24.3 12.39a10.868 10.868 0 0 0-9.594-9.594V.306H12.29v2.49a10.868 10.868 0 0 0-9.594 9.594H.207v2.417h2.49A10.868 10.868 0 0 0 12.29 24.4v2.489h2.417V24.4a10.868 10.868 0 0 0 9.594-9.593h2.49V12.39H24.3ZM13.5 22.057a8.452 8.452 0 0 1-8.459-8.459A8.452 8.452 0 0 1 13.5 5.14a8.452 8.452 0 0 1 8.458 8.458 8.452 8.452 0 0 1-8.458 8.459Z" /></symbol><symbol viewBox="0 0 25 17" fill="currentColor" id="advantages6"><path d="M24.585 2.46 22.88.756l-3.444 3.879C16.948 1.83 13.504.14 9.613.14 6.121.14 2.92 1.54.418 3.765L2.134 5.48c2.054-1.8 4.652-2.924 7.48-2.924 3.31 0 6.15 1.523 8.18 3.915l-3.48 3.915L9.48 5.553.418 14.628 2.23 16.44l7.25-7.262 4.834 4.833 4.894-5.498a14.827 14.827 0 0 1 1.74 5.498h2.428c-.266-2.779-1.148-5.304-2.465-7.419l3.674-4.132Z" /></symbol><symbol viewBox="0 0 24 17" fill="currentColor" id="arrow"><path fill-rule="evenodd" clip-rule="evenodd" d="M0 8.049a1 1 0 0 1 1-1h22a1 1 0 1 1 0 2H1a1 1 0 0 1-1-1Z" /><path fill-rule="evenodd" clip-rule="evenodd" d="M15.293.342a1 1 0 0 1 1.414 0l7 7a1 1 0 0 1 0 1.414l-7 7a1 1 0 1 1-1.414-1.414l6.293-6.293-6.293-6.293a1 1 0 0 1 0-1.414Z" /></symbol><symbol viewBox="0 0 16 9" id="arrow_down"><path d="M15 8 8 1 1 8" fill="none" stroke="currentColor" stroke-linecap="round" stroke-linejoin="round" stroke-width="2" /></symbol><symbol viewBox="0 0 22 23" fill="currentColor" id="card-check"><circle opacity=".3" cx="11" cy="11.098" r="10.5" stroke="#1D92FF" /><path d="M15.583 8.348 9.28 14.764l-2.865-2.916" stroke="#1D92FF" stroke-width="1.5" stroke-linecap="round" stroke-linejoin="round" /></symbol><symbol viewBox="0 0 22 23" fill="currentColor" id="card-check-fill"><circle cx="11" cy="11.049" r="11" /><path d="m16.5 7.382-7.563 7.562L5.5 11.507" stroke="#186AB5" stroke-width="1.5" stroke-linecap="round" stroke-linejoin="round" /></symbol><symbol viewBox="0 0 32 33" id="decor_list_1"><circle cx="16" cy="16.26" r="16" fill="#1d92ff" opacity=".05" style="isolation:isolate" /><path d="M15.65 8.26v5.83H12l4.7 4.7 4.69-4.7h-3.65V8.26Zm-5.21 9.39a6.26 6.26 0 0 0 12.52 0h-2.09a4.18 4.18 0 0 1-8.35 0Z" fill="#1d92ff" opacity=".7" style="isolation:isolate" /></symbol><symbol viewBox="0 0 32 33" id="decor_list_2"><circle cx="16" cy="16.26" r="16" fill="#1d92ff" opacity=".05" style="isolation:isolate" /><path d="M13.89 14.61v-2.72a1.74 1.74 0 0 1 1.62-1.83 1.74 1.74 0 0 1 1.63 1.83v2.72a3.41 3.41 0 0 0 1.3-2.72 3.11 3.11 0 0 0-2.93-3.28 3.11 3.11 0 0 0-2.92 3.28 3.38 3.38 0 0 0 1.3 2.72ZM20.28 18l-3-1.65a.85.85 0 0 0-.35-.08h-.49v-4.38a1 1 0 1 0-1.95 0v7.82l-2.23-.52h-.15a.69.69 0 0 0-.52.24l-.51.58 3.21 3.6a.9.9 0 0 0 .69.32h4.41a1 1 0 0 0 .93-.93l.49-3.84v-.15a1.1 1.1 0 0 0-.59-1Z" fill="#1d92ff" /></symbol><symbol viewBox="0 0 7 15" fill="currentColor" id="facebook"><path d="M1.513 3.502V5.43H0v2.356h1.513v7.005H4.62V7.787h2.085s.196-1.13.29-2.366H4.633V3.81c0-.24.338-.564.673-.564H7V.79H4.697c-3.26 0-3.184 2.359-3.184 2.711Z" /></symbol><symbol viewBox="0 0 30 50" id="hero_icon"><path d="m1 46.5-.3-.003a.3.3 0 0 0 .305.303L1 46.5Zm25.506-.147 3.024 1.379-.06-3.464-2.975 1.485.01.6ZM1.19 1.945a.3.3 0 1 0 .6.006l-.6-.006Zm.558 3.798a.3.3 0 1 0-.6-.007l.6.007Zm-.62 1.89a.3.3 0 1 0 .6.006l-.6-.007Zm.557 3.797a.3.3 0 1 0-.6-.006l.6.006Zm-.62 1.89a.3.3 0 1 0 .6.006l-.6-.006Zm.558 3.798a.3.3 0 1 0-.6-.007l.6.007Zm-.62 1.89a.3.3 0 1 0 .6.006l-.6-.007Zm.557 3.797a.3.3 0 1 0-.6-.006l.6.006Zm-.62 1.89a.3.3 0 1 0 .6.006l-.6-.006Zm.558 3.798a.3.3 0 1 0-.6-.007l.6.007Zm-.62 1.89a.3.3 0 1 0 .6.006l-.6-.007Zm.557 3.797a.3.3 0 1 0-.6-.006l.6.006Zm-.62 1.89a.3.3 0 1 0 .6.006l-.6-.006Zm.558 3.798a.3.3 0 1 0-.6-.007l.6.007Zm-.62 1.89a.3.3 0 1 0 .6.006l-.6-.007Zm.557 3.797a.3.3 0 1 0-.6-.006l.6.006Zm.645 1.228a.3.3 0 0 0-.01-.6l.01.6Zm3.79-.666a.3.3 0 0 0 .01.6l-.01-.6Zm1.91.566a.3.3 0 0 0-.01-.6l.01.6Zm3.79-.666a.3.3 0 0 0 .01.6l-.01-.6Zm1.91.566a.3.3 0 0 0-.01-.6l.01.6Zm3.79-.666a.3.3 0 0 0 .01.6l-.01-.6Zm1.91.566a.3.3 0 0 0-.01-.6l.01.6Zm3.79-.666a.3.3 0 0 0 .01.6l-.01-.6Zm1.91.566a.3.3 0 0 0-.01-.6l.01.6Zm3.79-.666a.3.3 0 0 0 .01.6l-.01-.6ZM1.2.997l-.01.948.6.006.01-.948-.6-.006Zm-.052 4.74-.02 1.895.6.007.02-1.896-.6-.007Zm-.063 5.687-.02 1.896.6.006.02-1.896-.6-.006Zm-.062 5.687-.02 1.896.6.007.02-1.896-.6-.007ZM.96 22.8l-.02 1.896.6.006.02-1.896-.6-.006Zm-.062 5.687-.02 1.896.6.007.02-1.896-.6-.007Zm-.063 5.688-.02 1.896.6.006.02-1.896-.6-.006ZM.773 39.86l-.02 1.896.6.007.02-1.896-.6-.007ZM.71 45.55l-.01.948.6.006.01-.948-.6-.006Zm.295 1.251.95-.017-.01-.6-.95.017.01.6Zm4.75-.083 1.9-.034-.01-.6-1.9.034.01.6Zm5.7-.1 1.9-.034-.01-.6-1.9.034.01.6Zm5.7-.1 1.9-.034-.01-.6-1.9.034.01.6Zm5.7-.1 1.9-.034-.01-.6-1.9.034.01.6ZM1 46.5l-.6-.007a.6.6 0 0 0 .61.607L1 46.5Zm22.511.205 6.05 2.759-.122-6.928-5.949 2.97.021 1.2ZM.89 1.941a.6.6 0 0 0 1.2.014L.89 1.94Zm1.158 3.805a.6.6 0 0 0-1.2-.013l1.2.013ZM.828 7.63a.6.6 0 1 0 1.2.013l-1.2-.013Zm1.157 3.805a.6.6 0 0 0-1.2-.013l1.2.013Zm-1.22 1.882a.6.6 0 0 0 1.2.013l-1.2-.013Zm1.158 3.805a.6.6 0 0 0-1.2-.013l1.2.013Zm-1.22 1.883a.6.6 0 0 0 1.2.013l-1.2-.013Zm1.157 3.805a.6.6 0 0 0-1.2-.014l1.2.014ZM.64 24.69a.6.6 0 0 0 1.2.014l-1.2-.014Zm1.158 3.805a.6.6 0 0 0-1.2-.013l1.2.013ZM.578 30.38a.6.6 0 0 0 1.2.013l-1.2-.013Zm1.157 3.805a.6.6 0 0 0-1.2-.014l1.2.014Zm-1.22 1.882a.6.6 0 0 0 1.2.014l-1.2-.014Zm1.158 3.805a.6.6 0 0 0-1.2-.013l1.2.013Zm-1.22 1.883a.6.6 0 0 0 1.199.013l-1.2-.013Zm1.157 3.805a.6.6 0 0 0-1.2-.014l1.2.014Zm.35 1.524a.6.6 0 1 0-.02-1.2l.02 1.2Zm3.78-1.266a.6.6 0 1 0 .02 1.2l-.02-1.2Zm1.92 1.166a.6.6 0 1 0-.02-1.2l.02 1.2Zm3.78-1.266a.6.6 0 0 0 .02 1.2l-.02-1.2Zm1.92 1.166a.6.6 0 0 0-.02-1.2l.02 1.2Zm3.78-1.266a.6.6 0 0 0 .02 1.2l-.02-1.2Zm1.92 1.166a.6.6 0 0 0-.02-1.2l.02 1.2Zm3.78-1.266a.6.6 0 0 0 .02 1.2l-.02-1.2Zm1.92 1.166a.6.6 0 0 0-.02-1.2l.02 1.2Zm3.78-1.266a.6.6 0 0 0 .02 1.2l-.02-1.2ZM.9.993l-.01.948 1.2.014.01-.948L.9.993Zm-.052 4.74-.02 1.896 1.2.013.02-1.896-1.2-.013Zm-.063 5.688-.02 1.895 1.2.013.02-1.895-1.2-.013Zm-.062 5.687-.02 1.896 1.2.013.02-1.896-1.2-.013ZM.66 22.796.64 24.69l1.2.014.02-1.896-1.2-.014Zm-.062 5.687-.02 1.896 1.2.013.02-1.896-1.2-.013ZM.535 34.17l-.02 1.896 1.2.014.02-1.896-1.2-.014Zm-.062 5.688-.02 1.896 1.199.013.02-1.896-1.199-.013ZM.41 45.546l-.01.947 1.2.014.01-.948-1.2-.014Zm.6 1.554.95-.017-.02-1.2-.95.017.02 1.2Zm4.75-.083 1.9-.034-.02-1.2-1.9.034.02 1.2Zm5.7-.1 1.9-.034-.02-1.2-1.9.034.02 1.2Zm5.7-.1 1.9-.034-.02-1.2-1.9.034.02 1.2Zm5.7-.1 1.9-.034-.02-1.2-1.9.034.02 1.2Z" fill="currentColor" /></symbol><symbol viewBox="0 0 14 14" fill="none" id="linkedin"><path d="M9.58 4.896a4.105 4.105 0 0 1 4.105 4.106v4.79h-2.737v-4.79a1.369 1.369 0 0 0-2.737 0v4.79H5.475v-4.79A4.105 4.105 0 0 1 9.58 4.896ZM2.737 5.58H0v8.21h2.737V5.58ZM1.368 3.528a1.368 1.368 0 1 0 0-2.737 1.368 1.368 0 0 0 0 2.737Z" fill="currentColor" /></symbol><symbol viewBox="0 0 14 13" fill="none" id="twitter"><path d="M14 .798a6.802 6.802 0 0 1-1.998 1.023 2.832 2.832 0 0 0-1.46-.94 2.72 2.72 0 0 0-1.708.107 2.88 2.88 0 0 0-1.342 1.116c-.328.508-.5 1.11-.492 1.723v.669a6.512 6.512 0 0 1-3.226-.759 6.893 6.893 0 0 1-2.501-2.27s-2.546 6.018 3.182 8.693A7.148 7.148 0 0 1 0 11.498c5.727 3.344 12.727 0 12.727-7.69 0-.187-.017-.373-.05-.556A5.235 5.235 0 0 0 14 .798Z" fill="currentColor" /></symbol></defs><use id="advantages1-usage" xlink:href="#advantages1" class="sprite-symbol-usage" /><use id="advantages2-usage" xlink:href="#advantages2" class="sprite-symbol-usage" /><use id="advantages3-usage" xlink:href="#advantages3" class="sprite-symbol-usage" /><use id="advantages4-usage" xlink:href="#advantages4" class="sprite-symbol-usage" /><use id="advantages5-usage" xlink:href="#advantages5" class="sprite-symbol-usage" /><use id="advantages6-usage" xlink:href="#advantages6" class="sprite-symbol-usage" /><use id="arrow-usage" xlink:href="#arrow" class="sprite-symbol-usage" /><use id="arrow_down-usage" xlink:href="#arrow_down" class="sprite-symbol-usage" /><use id="card-check-usage" xlink:href="#card-check" class="sprite-symbol-usage" /><use id="card-check-fill-usage" xlink:href="#card-check-fill" class="sprite-symbol-usage" /><use id="decor_list_1-usage" xlink:href="#decor_list_1" class="sprite-symbol-usage" /><use id="decor_list_2-usage" xlink:href="#decor_list_2" class="sprite-symbol-usage" /><use id="facebook-usage" xlink:href="#facebook" class="sprite-symbol-usage" /><use id="hero_icon-usage" xlink:href="#hero_icon" class="sprite-symbol-usage" /><use id="linkedin-usage" xlink:href="#linkedin" class="sprite-symbol-usage" /><use id="twitter-usage" xlink:href="#twitter" class="sprite-symbol-usage" /></svg>