<svg width="284" height="269" viewBox="0 0 284 269" fill="none" xmlns="http://www.w3.org/2000/svg">
<circle cx="134" cy="134.259" r="134" fill="#E7F3FF"/>
<path d="M114 87.5063C139.005 72.5026 158.384 98.758 175.262 87.5063C192.141 76.2547 205.894 103.135 226.523 87.5063C247.152 71.8777 255.279 98.7579 282.159 87.5063" stroke="#A7C2DE" stroke-width="2" stroke-linecap="round" stroke-linejoin="round"/>
<path d="M114 74.4614C139.005 59.4577 158.384 85.713 175.262 74.4614C192.141 63.2097 205.894 90.09 226.523 74.4614C247.152 58.8327 255.279 85.713 282.159 74.4614" stroke="#A7C2DE" stroke-width="2" stroke-linecap="round" stroke-linejoin="round"/>
<path d="M114 61.4165C139.005 46.4128 158.384 72.6681 175.262 61.4165C192.141 50.1648 205.894 77.0451 226.523 61.4165C247.152 45.7878 255.279 72.6681 282.159 61.4165" stroke="#A7C2DE" stroke-width="2" stroke-linecap="round" stroke-linejoin="round"/>
<path d="M114 48.3715C139.005 33.3678 158.384 59.6232 175.262 48.3715C192.141 37.1199 205.894 64.0002 226.523 48.3715C247.152 32.7429 255.279 59.6231 282.159 48.3715" stroke="#A7C2DE" stroke-width="2" stroke-linecap="round" stroke-linejoin="round"/>
<path d="M114 35.3266C139.005 20.3229 158.384 46.5783 175.262 35.3266C192.141 24.075 205.894 50.9553 226.523 35.3266C247.152 19.698 255.279 46.5782 282.159 35.3266" stroke="#A7C2DE" stroke-width="2" stroke-linecap="round" stroke-linejoin="round"/>
<path d="M114 22.2817C139.005 7.278 158.384 33.5333 175.262 22.2817C192.141 11.0301 205.894 37.9104 226.523 22.2817C247.152 6.65304 255.279 33.5333 282.159 22.2817" stroke="#A7C2DE" stroke-width="2" stroke-linecap="round" stroke-linejoin="round"/>
</svg>
